<?xml version="1.0" encoding="UTF-8"?>
<!DOCTYPE svg PUBLIC "-//W3C//DTD SVG 1.0//EN" "http://www.w3.org/TR/2001/REC-SVG-20010904/DTD/svg10.dtd">
<!-- Creator: CorelDRAW 2021 (64 Bit) -->
<svg xmlns="http://www.w3.org/2000/svg" xml:space="preserve" width="47.625mm" height="47.625mm" version="1.0" style="shape-rendering:geometricPrecision; text-rendering:geometricPrecision; image-rendering:optimizeQuality; fill-rule:evenodd; clip-rule:evenodd"
viewBox="0 0 734.48 734.48"
 xmlns:xlink="http://www.w3.org/1999/xlink"
 xmlns:xodm="http://www.corel.com/coreldraw/odm/2003">
 <defs>
  <style type="text/css">
   <![CDATA[
    .fil1 {fill:none;fill-rule:nonzero}
    .fil0 {fill:#FEFEFE}
   ]]>
  </style>
 </defs>
 <g id="Camada_x0020_1">
  <metadata id="CorelCorpID_0Corel-Layer"/>
  <g id="_2310022895344">
   <path class="fil0" d="M156.08 159.75l422.32 0c-3.19,4.76 -18.9,16.27 -24.91,20.99l-182.58 144.26c-29.87,-20 -100.61,-77.37 -134.29,-102.57 -8.97,-6.71 -77.24,-57.75 -80.54,-62.68z"/>
   <path class="fil0" d="M130.37 231.36c6.7,1.79 116.36,86.81 117.78,87.87l87.61 66.63c39.25,29.36 45.08,17.33 97.01,-24.71l156.41 -124.52c5.69,-4.54 8.48,-7.36 14.93,-10.78l0 348.87 -473.73 0 0 -343.37z"/>
  </g>
  <path class="fil1" d="M734.48 367.24c0,202.82 -164.42,367.24 -367.24,367.24 -202.82,0 -367.24,-164.42 -367.24,-367.24 0,-202.82 164.42,-367.24 367.24,-367.24 202.82,0 367.24,164.41 367.24,367.24z"/>
 </g>
</svg>
