<?xml version="1.0" encoding="UTF-8"?>
<!DOCTYPE svg PUBLIC "-//W3C//DTD SVG 1.0//EN" "http://www.w3.org/TR/2001/REC-SVG-20010904/DTD/svg10.dtd">
<!-- Creator: CorelDRAW 2021 (64 Bit) -->
<svg xmlns="http://www.w3.org/2000/svg" xml:space="preserve" width="47.625mm" height="47.625mm" version="1.0" style="shape-rendering:geometricPrecision; text-rendering:geometricPrecision; image-rendering:optimizeQuality; fill-rule:evenodd; clip-rule:evenodd"
viewBox="0 0 11177.4 11177.4"
 xmlns:xlink="http://www.w3.org/1999/xlink"
 xmlns:xodm="http://www.corel.com/coreldraw/odm/2003">
 <defs>
  <style type="text/css">
   <![CDATA[
    .fil0 {fill:none;fill-rule:nonzero}
    .fil1 {fill:#FEFEFE}
   ]]>
  </style>
 </defs>
 <g id="Camada_x0020_1">
  <metadata id="CorelCorpID_0Corel-Layer"/>
  <g id="_2448369547808">
   <path class="fil0" d="M11177.4 5588.7c0,3086.54 -2502.14,5588.7 -5588.7,5588.7 -3086.54,0 -5588.7,-2502.17 -5588.7,-5588.7 0,-3086.54 2502.17,-5588.7 5588.7,-5588.7 3086.56,0 5588.7,2502.17 5588.7,5588.7z"/>
   <path class="fil1" d="M4475.11 8937.23c-158.58,-12.91 -936.37,238.83 -1391.16,-346.9 -150.3,-193.55 -199.05,-574.77 -555.76,-823.34 -84.8,-59.07 -228.01,-127.23 -221.46,-244.22 161.94,-143.24 475.85,-5.89 604.6,90.83 353.62,265.65 358.01,661.91 870.3,780.01 193.15,44.52 674.09,0.77 717.58,-127.84 4.06,-11.97 8.75,-33.33 11.34,-46.16 20.84,-103.13 34.52,-162.17 80.59,-262.84 76.91,-168.04 167.53,-222.66 172.22,-269.22 -928.83,-88.74 -1521.07,-439.05 -1822.32,-1109.97 -220.87,-491.88 -292.74,-1308.9 -44.4,-1854.01 68.11,-149.45 199.52,-369.27 297.69,-448.11 -5.47,-133.24 -102.21,-263.49 -79.75,-635.93 8.97,-148.42 68.72,-474.51 135.21,-574.61 295.08,-94.28 898.09,252.58 1082.37,367.91 111.53,69.82 102.63,103.01 253.61,64.68 540.79,-137.25 1133.23,-153.89 1683.85,-66.35 466.53,74.19 369.53,141.59 572.1,9.06 106.86,-69.92 975.35,-558.25 1105.3,-348.45 91.13,147.18 131.12,582.37 123.59,734.67 -8.12,163.84 -36.89,240.45 -73.04,384.93 -21.01,84.02 61.94,117.09 164.8,275.09 392.06,602.11 353.08,1597.46 18,2218.61 -359.46,666.33 -989.1,881.59 -1772.12,984.53 31.21,56.21 79.91,89.68 126.13,164.57 131.05,212.33 167.5,443.53 167.34,700.03 -0.23,383.05 -0.84,766.89 -6.92,1149.78 -7.56,473.48 455.08,233.92 701.27,125.09 261.31,-115.49 543.27,-274.34 742.06,-421.49 494.9,-366.34 783.39,-649.03 1141.05,-1157.61 296.23,-421.26 564.16,-1022.59 686.25,-1625.95 288.23,-1424.18 -122.42,-2729.37 -799.42,-3630.33 -1090.73,-1451.55 -3000.21,-2193.68 -4910.97,-1595.04 -628.4,196.89 -1075.12,481.97 -1498.04,814.47 -885.02,695.78 -1489.55,1861.23 -1611.89,2998.88 -199.47,1855.11 739.83,3628 2378.13,4490.84 148.99,78.46 660.62,350.82 840.49,268 151.61,-69.82 117.61,-270.98 115.87,-453.86 -1.81,-191.61 1.22,-389.01 -4.48,-579.72z"/>
  </g>
 </g>
</svg>
