<?xml version="1.0" encoding="UTF-8"?>
<!DOCTYPE svg PUBLIC "-//W3C//DTD SVG 1.0//EN" "http://www.w3.org/TR/2001/REC-SVG-20010904/DTD/svg10.dtd">
<!-- Creator: CorelDRAW 2021 (64 Bit) -->
<svg xmlns="http://www.w3.org/2000/svg" xml:space="preserve" width="47.625mm" height="47.625mm" version="1.0" style="shape-rendering:geometricPrecision; text-rendering:geometricPrecision; image-rendering:optimizeQuality; fill-rule:evenodd; clip-rule:evenodd"
viewBox="0 0 1611.16 1611.16"
 xmlns:xlink="http://www.w3.org/1999/xlink"
 xmlns:xodm="http://www.corel.com/coreldraw/odm/2003">
 <defs>
  <style type="text/css">
   <![CDATA[
    .fil0 {fill:none;fill-rule:nonzero}
    .fil1 {fill:white;fill-rule:nonzero}
   ]]>
  </style>
 </defs>
 <g id="Camada_x0020_1">
  <metadata id="CorelCorpID_0Corel-Layer"/>
  <g id="_2448475629184">
   <path class="fil0" d="M805.58 0c444.91,0 805.58,360.66 805.58,805.58 0,444.91 -360.67,805.58 -805.58,805.58 -444.91,0 -805.58,-360.67 -805.58,-805.58 0,-444.92 360.67,-805.58 805.58,-805.58z"/>
   <path class="fil1" d="M805.58 298.36c-137.76,0 -155.03,0.59 -209.13,3.05 -53.98,2.46 -90.86,11.03 -123.12,23.57 -33.36,12.96 -61.64,30.3 -89.84,58.51 -28.2,28.2 -45.54,56.48 -58.5,89.84 -12.53,32.26 -21.11,69.13 -23.57,123.11 -2.47,54.11 -3.05,71.37 -3.05,209.13 0,137.75 0.58,155.03 3.05,209.13 2.46,53.98 11.04,90.86 23.57,123.11 12.96,33.36 30.3,61.64 58.5,89.83 28.2,28.2 56.49,45.54 89.84,58.52 32.26,12.53 69.14,21.11 123.12,23.57 54.1,2.47 71.37,3.05 209.13,3.05 137.75,0 155.02,-0.59 209.12,-3.05 53.99,-2.46 90.87,-11.04 123.13,-23.57 33.36,-12.97 61.64,-30.32 89.84,-58.52 28.19,-28.19 45.54,-56.48 58.5,-89.83 12.53,-32.26 21.11,-69.14 23.57,-123.11 2.47,-54.1 3.05,-71.38 3.05,-209.13 0,-137.75 -0.59,-155.02 -3.05,-209.13 -2.46,-53.99 -11.04,-90.86 -23.57,-123.11 -12.96,-33.36 -30.31,-61.64 -58.5,-89.84 -28.2,-28.2 -56.49,-45.54 -89.84,-58.51 -32.26,-12.54 -69.14,-21.11 -123.13,-23.57 -54.1,-2.47 -71.37,-3.05 -209.12,-3.05l0 0zm0 91.4c135.43,0 151.47,0.51 204.96,2.95 49.45,2.27 76.3,10.52 94.18,17.47 23.68,9.2 40.58,20.19 58.32,37.94 17.75,17.75 28.74,34.65 37.94,58.31 6.95,17.88 15.2,44.73 17.47,94.19 2.43,53.49 2.95,69.53 2.95,204.96 0,135.44 -0.51,151.47 -2.95,204.96 -2.27,49.45 -10.53,76.31 -17.47,94.18 -9.2,23.68 -20.19,40.58 -37.94,58.32 -17.75,17.75 -34.65,28.74 -58.32,37.94 -17.88,6.95 -44.73,15.22 -94.18,17.46 -53.49,2.45 -69.52,2.96 -204.96,2.96 -135.45,0 -151.48,-0.51 -204.96,-2.96 -49.44,-2.24 -76.31,-10.51 -94.18,-17.46 -23.68,-9.2 -40.58,-20.19 -58.32,-37.94 -17.75,-17.74 -28.74,-34.65 -37.94,-58.32 -6.95,-17.87 -15.2,-44.73 -17.47,-94.18 -2.44,-53.49 -2.95,-69.53 -2.95,-204.96 0,-135.43 0.51,-151.47 2.95,-204.96 2.27,-49.46 10.52,-76.31 17.47,-94.19 9.2,-23.66 20.18,-40.57 37.94,-58.31 17.75,-17.74 34.65,-28.74 58.32,-37.94 17.87,-6.95 44.73,-15.21 94.18,-17.47 53.49,-2.44 69.53,-2.95 204.96,-2.95z"/>
   <path class="fil1" d="M805.58 974.66c-93.37,0 -169.08,-75.7 -169.08,-169.08 0,-93.37 75.7,-169.08 169.08,-169.08 93.38,0 169.08,75.7 169.08,169.08 0,93.38 -75.7,169.08 -169.08,169.08zm0 -429.53c-143.85,0 -260.46,116.61 -260.46,260.46 0,143.85 116.61,260.46 260.46,260.46 143.85,0 260.46,-116.61 260.46,-260.46 0,-143.85 -116.61,-260.46 -260.46,-260.46z"/>
   <path class="fil1" d="M1137.19 534.82c0,33.62 -27.25,60.86 -60.85,60.86 -33.62,0 -60.87,-27.25 -60.87,-60.86 0,-33.62 27.25,-60.87 60.87,-60.87 33.61,0 60.85,27.25 60.85,60.87z"/>
  </g>
 </g>
</svg>
