<?xml version="1.0" encoding="UTF-8"?>
<!DOCTYPE svg PUBLIC "-//W3C//DTD SVG 1.0//EN" "http://www.w3.org/TR/2001/REC-SVG-20010904/DTD/svg10.dtd">
<!-- Creator: CorelDRAW 2021 (64 Bit) -->
<svg xmlns="http://www.w3.org/2000/svg" xml:space="preserve" width="47.625mm" height="47.625mm" version="1.0" style="shape-rendering:geometricPrecision; text-rendering:geometricPrecision; image-rendering:optimizeQuality; fill-rule:evenodd; clip-rule:evenodd"
viewBox="0 0 2245.93 2245.93"
 xmlns:xlink="http://www.w3.org/1999/xlink"
 xmlns:xodm="http://www.corel.com/coreldraw/odm/2003">
 <defs>
  <style type="text/css">
   <![CDATA[
    .fil0 {fill:none;fill-rule:nonzero}
    .fil1 {fill:#FEFEFE;fill-rule:nonzero}
   ]]>
  </style>
 </defs>
 <g id="Camada_x0020_1">
  <metadata id="CorelCorpID_0Corel-Layer"/>
  <g id="_2448364373968">
   <path class="fil0" d="M2245.93 1122.96c0,620.19 -502.77,1122.96 -1122.96,1122.96 -620.19,0 -1122.96,-502.77 -1122.96,-1122.96 0,-620.19 502.77,-1122.96 1122.96,-1122.96 620.2,0 1122.96,502.77 1122.96,1122.96z"/>
   <path class="fil1" d="M1209.86 969.76c18.43,-20.71 33.64,-41.76 52.59,-59.61 58.23,-54.88 127.12,-82.58 207.54,-81.9 44.21,0.36 87.91,3.56 130.52,15.89 97.47,28.18 154.12,95.27 181.12,190.49 20.26,71.4 23.99,144.72 24.12,218.25 0.26,155.13 -0.45,310.25 -0.12,465.39 0.03,14.52 -4.02,18.33 -18.33,18.2 -79.91,-0.65 -159.84,-0.66 -239.75,0.03 -14.06,0.12 -17.1,-4.24 -17.05,-17.52 0.45,-147.62 0.55,-295.21 0.08,-442.83 -0.14,-36.98 -2.48,-73.95 -12.86,-109.92 -19.12,-66.25 -66.53,-100 -135.94,-96.34 -94.78,5 -144.06,51.94 -156.13,148.29 -2.9,23.03 -4.26,46.05 -4.24,69.24 0.14,143.56 -0.15,287.11 0.38,430.65 0.05,14.32 -3.52,18.55 -18.15,18.42 -80.49,-0.72 -161.01,-0.63 -241.5,-0.07 -12.89,0.1 -16.63,-3.38 -16.62,-16.43 0.37,-284.21 0.37,-568.42 -0.01,-852.64 -0.02,-14.06 4.59,-17.32 17.88,-17.22 76.44,0.57 152.91,0.63 229.33,-0.05 14.08,-0.12 17.7,4.42 17.39,17.75 -0.78,33.95 -0.25,67.94 -0.25,101.91z"/>
   <path class="fil1" d="M771.99 1294.57c0,140.59 -0.23,281.21 0.33,421.82 0.07,15.62 -3.83,20.34 -20,20.17 -79.87,-0.88 -159.78,-0.66 -239.66,-0.12 -12.79,0.1 -16.65,-3.11 -16.64,-16.34 0.38,-284.69 0.35,-569.37 0.07,-854.05 -0.01,-11.78 2.85,-15.97 15.35,-15.91 81.04,0.53 162.09,0.68 243.13,-0.08 15.57,-0.17 17.7,5.89 17.67,19.24 -0.38,141.76 -0.25,283.52 -0.25,425.28z"/>
   <path class="fil1" d="M794.03 568.04c0.07,88.27 -71.59,160.19 -159.64,160.23 -86.96,0.03 -159.21,-71.95 -159.5,-158.86 -0.3,-87.86 71.92,-160.21 159.81,-160.13 87.29,0.08 159.23,71.77 159.33,158.76z"/>
  </g>
 </g>
</svg>
