<?xml version="1.0" encoding="UTF-8"?>
<!DOCTYPE svg PUBLIC "-//W3C//DTD SVG 1.0//EN" "http://www.w3.org/TR/2001/REC-SVG-20010904/DTD/svg10.dtd">
<!-- Creator: CorelDRAW 2021 (64 Bit) -->
<svg xmlns="http://www.w3.org/2000/svg" xml:space="preserve" width="52.9167mm" height="52.9167mm" version="1.0" style="shape-rendering:geometricPrecision; text-rendering:geometricPrecision; image-rendering:optimizeQuality; fill-rule:evenodd; clip-rule:evenodd"
viewBox="0 0 92.75 92.75"
 xmlns:xlink="http://www.w3.org/1999/xlink"
 xmlns:xodm="http://www.corel.com/coreldraw/odm/2003">
 <defs>
  <style type="text/css">
   <![CDATA[
    .fil2 {fill:none}
    .fil1 {fill:#FEFEFE}
    .fil0 {fill:#307ABD}
   ]]>
  </style>
 </defs>
 <g id="Camada_x0020_1">
  <metadata id="CorelCorpID_0Corel-Layer"/>
  <g id="_2310024853296">
   <g>
    <polygon class="fil0" points="9.61,4.64 83.13,4.75 76.15,80.14 45.43,88.11 16.24,80.08 "/>
    <polygon class="fil1" points="69.74,37.98 68.95,47.4 66.82,68.15 44.57,72.58 44.62,72.59 25,68.54 23.72,58.62 23.69,58.64 23.01,53.73 33.51,53.79 34.87,60.84 44.63,63.1 44.63,63.06 58.15,60.42 59.49,47.4 22.82,47.2 21.5,38.13 21.57,38.13 21.57,38.13 46.81,31.09 20.92,31.11 19.75,21.67 71.97,21.67 70.67,32.93 54.81,37.98 "/>
   </g>
   <rect class="fil2" x="0" y="-0" width="92.75" height="92.75"/>
  </g>
 </g>
</svg>
