<?xml version="1.0" encoding="UTF-8"?>
<!DOCTYPE svg PUBLIC "-//W3C//DTD SVG 1.0//EN" "http://www.w3.org/TR/2001/REC-SVG-20010904/DTD/svg10.dtd">
<!-- Creator: CorelDRAW 2021 (64 Bit) -->
<svg xmlns="http://www.w3.org/2000/svg" xml:space="preserve" width="52.9167mm" height="52.9167mm" version="1.0" style="shape-rendering:geometricPrecision; text-rendering:geometricPrecision; image-rendering:optimizeQuality; fill-rule:evenodd; clip-rule:evenodd"
viewBox="0 0 97.31 97.31"
 xmlns:xlink="http://www.w3.org/1999/xlink"
 xmlns:xodm="http://www.corel.com/coreldraw/odm/2003">
 <defs>
  <style type="text/css">
   <![CDATA[
    .fil2 {fill:none}
    .fil1 {fill:#FEFEFE}
    .fil0 {fill:#FBB24A}
   ]]>
  </style>
 </defs>
 <g id="Camada_x0020_1">
  <metadata id="CorelCorpID_0Corel-Layer"/>
  <g id="_2310016296352">
   <g>
    <polygon class="fil0" points="10.09,4.87 87.22,4.99 87.22,5.05 79.9,84.08 51.44,92.44 17.04,84.02 "/>
    <polygon class="fil1" points="41.77,71.4 32.83,69.99 32.89,23.38 41.86,23.39 "/>
    <polygon class="fil1" points="41.82,62.76 40.44,70.9 21.77,68.81 20.9,60.09 "/>
    <polygon class="fil1" points="74.36,23.38 73.17,32.42 50.84,32.24 50.84,23.38 "/>
    <polygon class="fil1" points="59.88,48.63 50.9,48.65 50.84,27.47 59.81,27.44 "/>
    <polygon class="fil1" points="73.18,42.5 72.61,51.47 50.84,51.52 50.84,42.5 "/>
    <polygon class="fil1" points="71.75,68.2 62.05,68.23 63.17,47.04 72.74,47.01 "/>
    <polygon class="fil1" points="72.06,62.05 71.73,71.02 51.1,71.02 51.25,62.42 "/>
   </g>
   <rect class="fil2" x="0" y="-0" width="97.31" height="97.31"/>
  </g>
 </g>
</svg>
