<?xml version="1.0" encoding="UTF-8"?>
<!DOCTYPE svg PUBLIC "-//W3C//DTD SVG 1.0//EN" "http://www.w3.org/TR/2001/REC-SVG-20010904/DTD/svg10.dtd">
<!-- Creator: CorelDRAW 2021 (64 Bit) -->
<svg xmlns="http://www.w3.org/2000/svg" xml:space="preserve" width="47.625mm" height="47.625mm" version="1.0" style="shape-rendering:geometricPrecision; text-rendering:geometricPrecision; image-rendering:optimizeQuality; fill-rule:evenodd; clip-rule:evenodd"
viewBox="0 0 874.67 874.67"
 xmlns:xlink="http://www.w3.org/1999/xlink"
 xmlns:xodm="http://www.corel.com/coreldraw/odm/2003">
 <defs>
  <style type="text/css">
   <![CDATA[
    .fil0 {fill:none}
    .fil1 {fill:white;fill-rule:nonzero}
   ]]>
  </style>
 </defs>
 <g id="Camada_x0020_1">
  <metadata id="CorelCorpID_0Corel-Layer"/>
  <g id="_2448373937712">
   <path class="fil0" d="M874.67 437.34c0,241.53 -195.8,437.34 -437.34,437.34 -241.54,0 -437.34,-195.8 -437.34,-437.34 0,-241.54 195.8,-437.34 437.34,-437.34 241.54,0 437.34,195.8 437.34,437.34z"/>
   <path class="fil1" d="M348.96 689.21c213.62,0 330.43,-176.96 330.43,-330.41 0,-5.03 -0.13,-10.04 -0.33,-15.01 22.68,-16.39 42.37,-36.85 57.92,-60.13 -20.8,9.24 -43.22,15.47 -66.67,18.28 23.97,-14.37 42.37,-37.12 51.06,-64.24 -22.48,13.31 -47.3,22.98 -73.73,28.19 -21.25,-22.57 -51.38,-36.69 -84.81,-36.69 -64.14,0 -116.11,52.01 -116.11,116.12 0,9.12 0.97,17.98 2.98,26.48 -96.54,-4.85 -182.06,-51.06 -239.34,-121.33 -9.98,17.15 -15.75,37.1 -15.75,58.36 0,40.29 20.47,75.86 51.7,96.67 -19.05,-0.59 -37,-5.83 -52.61,-14.53 -0.06,0.49 -0.06,0.97 -0.06,1.48 0,56.25 40.04,103.2 93.17,113.85 -9.72,2.65 -20.02,4.08 -30.58,4.08 -7.52,0 -14.77,-0.74 -21.83,-2.09 14.77,46.14 57.66,79.71 108.46,80.66 -39.72,31.14 -89.8,49.71 -144.23,49.71 -9.33,0 -18.59,-0.53 -27.66,-1.61 51.38,32.93 112.41,52.16 177.98,52.16z"/>
  </g>
 </g>
</svg>
