<?xml version="1.0" encoding="UTF-8"?>
<!DOCTYPE svg PUBLIC "-//W3C//DTD SVG 1.0//EN" "http://www.w3.org/TR/2001/REC-SVG-20010904/DTD/svg10.dtd">
<!-- Creator: CorelDRAW 2021 (64 Bit) -->
<svg xmlns="http://www.w3.org/2000/svg" xml:space="preserve" width="47.625mm" height="47.625mm" version="1.0" style="shape-rendering:geometricPrecision; text-rendering:geometricPrecision; image-rendering:optimizeQuality; fill-rule:evenodd; clip-rule:evenodd"
viewBox="0 0 599.48 599.48"
 xmlns:xlink="http://www.w3.org/1999/xlink"
 xmlns:xodm="http://www.corel.com/coreldraw/odm/2003">
 <defs>
  <style type="text/css">
   <![CDATA[
    .fil0 {fill:none;fill-rule:nonzero}
    .fil1 {fill:white}
   ]]>
  </style>
 </defs>
 <g id="Camada_x0020_1">
  <metadata id="CorelCorpID_0Corel-Layer"/>
  <g id="_2448372308144">
   <path class="fil0" d="M599.48 299.74c0,165.54 -134.2,299.74 -299.74,299.74 -165.54,0 -299.74,-134.2 -299.74,-299.74 0,-165.55 134.2,-299.74 299.74,-299.74 165.54,0 299.74,134.2 299.74,299.74z"/>
   <path class="fil1" d="M396.11 333.38c-4.75,-2.38 -28.11,-13.87 -32.46,-15.45 -4.36,-1.58 -7.52,-2.38 -10.69,2.38 -3.16,4.75 -12.27,15.45 -15.04,18.62 -2.77,3.17 -5.54,3.56 -10.29,1.18 -4.75,-2.38 -20.06,-7.39 -38.21,-23.58 -14.13,-12.59 -23.66,-28.14 -26.43,-32.9 -2.77,-4.76 -0.3,-7.33 2.08,-9.69 2.14,-2.13 4.75,-5.55 7.13,-8.32 2.38,-2.77 3.17,-4.76 4.75,-7.92 1.59,-3.17 0.8,-5.95 -0.4,-8.32 -1.19,-2.38 -10.69,-25.76 -14.64,-35.27 -3.86,-9.26 -7.77,-8.01 -10.69,-8.15 -2.77,-0.14 -5.94,-0.16 -9.1,-0.16 -3.17,0 -8.31,1.19 -12.67,5.94 -4.36,4.76 -16.63,16.24 -16.63,39.62 0,23.38 17.02,45.96 19.4,49.13 2.38,3.17 33.5,51.15 81.16,71.72 11.34,4.89 20.19,7.82 27.09,10 11.38,3.62 21.74,3.1 29.93,1.88 9.12,-1.36 28.11,-11.49 32.07,-22.59 3.96,-11.09 3.96,-20.6 2.77,-22.58 -1.19,-1.98 -4.36,-3.17 -9.11,-5.55zm-86.69 118.33l-0.07 0c-28.36,-0.01 -56.17,-7.63 -80.44,-22.02l-5.77 -3.43 -59.82 15.69 15.97 -58.3 -3.76 -5.98c-15.82,-25.16 -24.18,-54.23 -24.16,-84.08 0.04,-87.11 70.93,-157.98 158.11,-157.98 42.21,0.02 81.9,16.47 111.74,46.33 29.84,29.87 46.26,69.56 46.25,111.78 -0.04,87.12 -70.94,157.99 -158.05,157.99zm134.51 -292.46c-35.9,-35.93 -83.64,-55.73 -134.51,-55.75 -104.81,0 -190.11,85.27 -190.15,190.08 -0.01,33.5 8.74,66.2 25.38,95.03l-26.98 98.5 100.8 -26.44c27.78,15.15 59.05,23.13 90.87,23.14l0.08 0c0.01,0 -0,0 0,0 104.79,0 190.1,-85.28 190.15,-190.09 0.02,-50.79 -19.74,-98.55 -55.64,-134.48z"/>
  </g>
 </g>
</svg>
