<?xml version="1.0" encoding="UTF-8"?>
<!DOCTYPE svg PUBLIC "-//W3C//DTD SVG 1.0//EN" "http://www.w3.org/TR/2001/REC-SVG-20010904/DTD/svg10.dtd">
<!-- Creator: CorelDRAW 2021 (64 Bit) -->
<svg xmlns="http://www.w3.org/2000/svg" xml:space="preserve" width="23.5042mm" height="23.5042mm" version="1.0" style="shape-rendering:geometricPrecision; text-rendering:geometricPrecision; image-rendering:optimizeQuality; fill-rule:evenodd; clip-rule:evenodd"
viewBox="0 0 556.75 556.75"
 xmlns:xlink="http://www.w3.org/1999/xlink"
 xmlns:xodm="http://www.corel.com/coreldraw/odm/2003">
 <defs>
  <style type="text/css">
   <![CDATA[
    .str0 {stroke:#FEFEFE;stroke-width:17.77;stroke-miterlimit:22.9256}
    .fil0 {fill:none}
    .fil1 {fill:#FEFEFE}
   ]]>
  </style>
 </defs>
 <g id="Camada_x0020_1">
  <metadata id="CorelCorpID_0Corel-Layer"/>
  <g id="_2448378393232">
   <path class="fil0 str0" d="M278.37 8.88c148.84,0 269.49,120.66 269.49,269.49 0,148.83 -120.65,269.49 -269.49,269.49 -148.84,0 -269.49,-120.66 -269.49,-269.49 0,-148.83 120.65,-269.49 269.49,-269.49z"/>
   <path class="fil1" d="M417.43 255.15l-139.05 204.48 0 0.01 -0.01 -0.01 -0.01 0.01 0 -0.02 -139.05 -204.48 0 83.42 0 153.44 0.26 9.44 -22.76 -9.44 0 -153.44 0 -120.27 0 -153.44 17.21 -7.61 5.27 7.49 139.08 202.38 139.07 -202.38 5.55 -7.78 16.94 7.9 0 153.44 0 120.26 0 153.44 -22.54 8.54 0.04 -8.54 0 -153.44 0 -83.42zm-278.11 -36.93l139.05 202.34 139.05 -202.35 0 -116.49 -139.05 204.48 0 0.01 -0.01 -0.01 -0.01 0.01 0 -0.02 -139.05 -204.48 0 116.51z"/>
  </g>
 </g>
</svg>
